#!OML:ASF C:\ViconDB\ViconDB\414\Spring2016\041811\Spring2016.ASF
:FULLY-SPECIFIED
:DEGREES
139
root 7.64514 19.8459 -5.66747 -173.035 -2.22212 178.483
lowerback 6.87988 0.549602 -4.73507
upperback -1.5086 0.342516 0.603024
thorax -5.47521 0.333181 3.25361
lowerneck -10.7338 -4.9743 -15.2176
upperneck 17.3559 -8.29135 17.0317
head 8.47785 -3.82015 7.45315
rclavicle -3.35449e-015 2.5842e-015
rhumerus -3.28988 23.2461 -59.2625
rradius 129.518
rwrist -11.6906
rhand -33.6961 -14.9214
rfingers 7.12502
rthumb -6.88618 -44.7894
lclavicle -3.35449e-015 2.5842e-015
lhumerus -0.837257 -1.59645 50.9326
lradius 111.627
lwrist 8.01319
lhand -37.4674 15.8441
lfingers 7.12502
lthumb -10.5255 45.5606
rfemur -3.67543 -13.6305 14.1147
rtibia 41.7931
rfoot -27.2716 5.76137
rtoes -16.8543
lfemur -3.62665 -0.430024 -15.4797
ltibia 34.0837
lfoot 8.88239 1.56347
ltoes -7.93324
140
root 7.6374 19.9662 -5.87932 -173.217 -2.11793 178.533
lowerback 7.28535 0.557476 -4.70706
upperback -1.41916 0.339022 0.645977
thorax -5.61153 0.332977 3.28302
lowerneck -10.7227 -4.8743 -15.0008
upperneck 17.213 -8.11064 16.8482
head 8.37814 -3.72834 7.36512
rclavicle 4.13721e-015 -5.96354e-015
rhumerus -4.35474 23.4143 -60.5265
rradius 129.072
rwrist -11.1055
rhand -33.6232 -14.4158
rfingers 7.12502
rthumb -6.81586 -44.2861
lclavicle 4.13721e-015 -5.96354e-015
lhumerus -1.73345 -1.93401 51.4416
lradius 111.309
lwrist 7.01008
lhand -37.2852 15.5573
lfingers 7.12502
lthumb -10.3498 45.2826
rfemur -4.16017 -14.2427 14.2464
rtibia 41.3727
rfoot -26.8618 5.56146
rtoes -15.9253
lfemur -4.38046 0.105149 -15.3528
ltibia 34.219
lfoot 8.5888 1.77884
ltoes -7.54223
141
root 7.63097 20.0778 -6.08537 -173.407 -2.0946 178.583
lowerback 7.74713 0.611979 -4.52827
upperback -1.17811 0.405389 0.592284
thorax -5.62373 0.353759 3.11721
lowerneck -11.0244 -4.96924 -15.0289
upperneck 17.0556 -8.23376 17.1543
head 8.42184 -3.74807 7.45908
rclavicle -4.09993e-016 -3.77691e-015
rhumerus -5.57351 23.0145 -61.9119
rradius 128.297
rwrist -9.80103
rhand -33.3488 -13.9608
rfingers 7.12502
rthumb -6.55095 -43.8395
lclavicle -4.09993e-016 -3.77691e-015
lhumerus -2.42729 -2.46386 52.0425
lradius 110.845
lwrist 6.04995
lhand -37.1389 15.1618
lfingers 7.12502
lthumb -10.2086 44.8941
rfemur -4.6873 -14.591 14.5182
rtibia 40.7579
rfoot -26.2726 5.56576
rtoes -15.471
lfemur -5.12541 0.42304 -15.2166
ltibia 34.0484
lfoot 8.26536 2.06648
ltoes -7.00034
142
root 7.6275 20.1778 -6.28682 -173.629 -2.0136 178.712
lowerback 8.46624 0.695182 -4.48475
upperback -1.00116 0.492717 0.716073
thorax -5.85438 0.398204 3.21023
lowerneck -11.3281 -5.08326 -15.2743
upperneck 17.0412 -8.33968 17.3718
head 8.51583 -3.7783 7.56694
rclavicle 1.01877e-014 5.96354e-015
rhumerus -7.00854 22.7212 -63.1906
rradius 127.545
rwrist -9.86395
rhand -33.1441 -13.9885
rfingers 7.12502
rthumb -6.35337 -43.8733
lclavicle 1.01877e-014 5.96354e-015
lhumerus -3.52367 -3.07041 52.9543
lradius 110.181
lwrist 4.8547
lhand -36.6016 14.7755
lfingers 7.12502
lthumb -9.69026 44.5326
rfemur -5.18282 -14.9021 14.8625
rtibia 39.8941
rfoot -25.8749 5.34202
rtoes -14.9477
lfemur -5.81927 0.804237 -14.9854
ltibia 33.6295
lfoot 7.79893 2.08281
ltoes -6.99988
143
root 7.62086 20.2636 -6.48254 -173.702 -1.95926 178.756
lowerback 8.59432 0.729614 -4.26266
upperback -0.492509 0.550179 0.650529
thorax -5.39243 0.394215 3.00887
lowerneck -11.826 -5.22719 -15.2907
upperneck 16.7079 -8.45421 17.6732
head 8.53887 -3.7752 7.65066
rclavicle 8.77137e-015 4.37326e-015
rhumerus -8.16914 22.0023 -64.6946
rradius 126.473
rwrist -9.50763
rhand -32.7802 -12.656
rfingers 7.12502
rthumb -6.00205 -42.551
lclavicle 8.77137e-015 4.37326e-015
lhumerus -4.25669 -3.71806 53.6826
lradius 109.285
lwrist 3.36402
lhand -36.9818 14.6828
lfingers 7.12502
lthumb -10.0571 44.4225
rfemur -5.82467 -15.093 15.1806
rtibia 38.8075
rfoot -25.4606 4.89152
rtoes -14.4186
lfemur -6.68563 1.1031 -14.8605
ltibia 32.988
lfoot 7.13042 2.02194
ltoes -6.99312
144
root 7.61847 20.3408 -6.67327 -173.752 -1.96844 178.869
lowerback 9.29014 0.774826 -3.99817
upperback -0.303515 0.599973 0.629667
thorax -5.58746 0.407553 2.82896
lowerneck -12.1166 -5.30967 -15.3501
upperneck 16.5504 -8.49769 17.7937
head 8.55997 -3.76814 7.69251
rclavicle 8.27441e-015 1.98785e-016
rhumerus -9.99911 21.6383 -66.1465
rradius 125.159
rwrist -8.9362
rhand -32.718 -11.8549
rfingers 7.12502
rthumb -5.94192 -41.7516
lclavicle 8.27441e-015 1.98785e-016
lhumerus -5.54793 -4.70565 54.4857
lradius 108.209
lwrist 1.90737
lhand -37.2106 14.3216
lfingers 7.12502
lthumb -10.2778 44.0505
rfemur -6.48236 -15.1666 15.6387
rtibia 37.4852
rfoot -25.1726 4.37464
rtoes -13.959
lfemur -7.60091 1.20154 -14.6459
ltibia 32.1697
lfoot 6.32335 1.933
ltoes -7.34881
